<svg width="12" height="12" viewBox="0 0 12 12" fill="none" xmlns="http://www.w3.org/2000/svg">
<g id="Outline/delete">
<path id="Vector" d="M3.62531 11C2.90295 11 2.72165 10.9286 2.72165 10.2858V4.57247L2.546 4.51319C2.4035 4.51491 2.26597 4.4608 2.16366 4.36272C2.06135 4.26464 2.00266 4.13064 2 3.98977V3.03411C2.00266 2.89344 2.06128 2.75959 2.16366 2.66186C2.26604 2.56412 2.40371 2.51049 2.546 2.51278L4.1699 2.42996V1.71579C4.16327 1.62032 4.17756 1.52452 4.21152 1.4349C4.24548 1.34529 4.29827 1.26388 4.36671 1.19621C4.43516 1.12854 4.51733 1.07617 4.60797 1.0426C4.69862 1.00902 4.79569 0.995073 4.89226 1.00162H7.05934C7.15594 0.994954 7.25293 1.00889 7.34363 1.04242C7.43433 1.07595 7.51641 1.12834 7.58488 1.19603C7.65335 1.26373 7.70687 1.34506 7.74078 1.43473C7.7747 1.5244 7.78844 1.62029 7.7817 1.71579V2.42996H9.22642C9.52764 2.42996 9.94878 2.74491 9.94878 3.03272V3.9882C9.94878 4.63524 10.2472 4.5118 9.40348 4.5118L9.22712 4.57108V10.2844C9.22712 10.8658 8.98443 10.9986 8.32347 10.9986L3.62531 11ZM8.50124 10.2858V4.57247H3.44472V10.2858H8.50124ZM2.72236 3.14413V3.8583L9.29202 3.8848V3.13629L2.72236 3.14413ZM4.88944 2.42996H7.05652V1.71579H4.88944V2.42996ZM7.05652 9.57166V5.28664H7.77888V9.57166H7.05652ZM5.6118 9.57166V5.28664H6.33416V9.57166H5.6118ZM4.16708 9.57166V5.28664H4.88944V9.57166H4.16708Z" fill="#212121"/>
</g>
</svg>
