<svg width="14" height="15" viewBox="0 0 14 15" fill="none" xmlns="http://www.w3.org/2000/svg">
<g id="Solid/info">
<path id="Vector" d="M6.99864 13.3333C5.84497 13.3331 4.71727 12.9908 3.75814 12.3496C2.79901 11.7085 2.05153 10.7974 1.6102 9.73148C1.16887 8.66556 1.05352 7.49271 1.27874 6.36123C1.50395 5.22975 2.05962 4.19047 2.87547 3.37478C3.69133 2.55909 4.73073 2.00364 5.86225 1.77866C6.99377 1.55367 8.1666 1.66926 9.23243 2.11081C10.2983 2.55236 11.2092 3.30003 11.8502 4.25929C12.4911 5.21855 12.8332 6.34632 12.8332 7.49999C12.8317 9.04684 12.2165 10.5299 11.1226 11.6236C10.0287 12.7172 8.54549 13.3322 6.99864 13.3333ZM6.50791 6.58272C6.51658 6.58256 6.52522 6.58391 6.53343 6.5867C6.5691 6.60139 6.59801 6.62885 6.61453 6.66372C6.63104 6.69859 6.63396 6.73835 6.62272 6.77526L5.65243 9.98712C5.62492 10.0697 5.61576 10.1573 5.62561 10.2438C5.63546 10.3302 5.66406 10.4135 5.70943 10.4878C5.77388 10.5788 5.85701 10.6549 5.95326 10.7111C6.04951 10.7674 6.15665 10.8024 6.26753 10.8139C6.98509 10.8139 7.42957 10.3662 7.91074 9.64389C7.91074 9.61718 7.91353 9.57612 7.91632 9.53546C7.92757 9.43672 7.92904 9.3371 7.9207 9.23807L7.33549 9.94367C7.25629 10.0469 7.14348 10.1193 7.01658 10.1482C7.00711 10.1482 6.99769 10.1467 6.98868 10.1438C6.95586 10.1309 6.92873 10.1067 6.91215 10.0755C6.89556 10.0444 6.89061 10.0084 6.89818 9.97396L7.87326 6.74496C7.89587 6.64771 7.89783 6.5468 7.87902 6.44875C7.8602 6.35069 7.82103 6.25768 7.76404 6.1757C7.70463 6.09939 7.62963 6.03663 7.54405 5.99161C7.45846 5.94658 7.36426 5.92032 7.26773 5.91459C6.78377 5.91459 6.05705 6.43283 5.61256 7.09776C5.61256 7.1153 5.61256 7.13763 5.61256 7.16673V7.18187C5.60736 7.28472 5.60895 7.38779 5.61735 7.49042L6.20415 6.78642C6.27907 6.68572 6.38631 6.61381 6.50791 6.58272ZM7.78038 4.11432C7.69169 4.11084 7.60323 4.12564 7.52051 4.1578C7.43778 4.18996 7.36256 4.2388 7.29952 4.30128C7.23648 4.36376 7.18697 4.43855 7.15407 4.52098C7.12116 4.60341 7.10558 4.69174 7.10827 4.78045C7.10708 4.91363 7.14549 5.04416 7.21862 5.15547C7.29175 5.26679 7.3963 5.35386 7.519 5.40565C7.64171 5.45744 7.77703 5.4716 7.9078 5.44635C8.03857 5.4211 8.15888 5.35756 8.25348 5.26381C8.34807 5.17005 8.41268 5.05031 8.43911 4.91977C8.46553 4.78923 8.45257 4.65379 8.40188 4.53063C8.35119 4.40747 8.26505 4.30214 8.1544 4.22802C8.04374 4.1539 7.91356 4.11433 7.78038 4.11432Z" fill="#1494D5"/>
</g>
</svg>
