<svg width="12" height="12" viewBox="0 0 12 12" fill="none" xmlns="http://www.w3.org/2000/svg">
<g id="Outline/reorder">
<path id="Vector" d="M3.7516 8.99408C5.1516 9.03253 6.96664 8.99412 8.22727 8.97821C7.16518 10.1293 6.93287 9.98084 6.05469 11C5.26051 10.1433 5.06887 10.3733 3.7516 8.99408ZM8.22727 7.66791V6.34174H9.5V7.66791H8.22727ZM6.31818 7.66791V6.34174H7.59091V7.66791H6.31818ZM4.40909 7.66791V6.34174H5.68182V7.66791H4.40909ZM2.5 7.66791V6.34174H3.77273V7.66791H2.5ZM8.22727 5.67866V4.35249H9.5V5.67866H8.22727ZM6.31818 5.67866V4.35249H7.59091V5.67866H6.31818ZM4.40909 5.67866V4.35249H5.68182V5.67866H4.40909ZM2.5 5.67866V4.35249H3.77273V5.67866H2.5ZM3.75284 3.02632L3.77459 3.00317H3.75284C5.07011 1.62462 5.26175 1.85405 6.05593 1C6.93411 2.01916 7.16642 1.87072 8.22852 3.01985H8.20739L8.22852 3.04235C6.96661 3.03108 5.14905 2.98861 3.7516 3.02972L3.75284 3.02632Z" fill="#212121"/>
</g>
</svg>
