<svg width="18" height="18" viewBox="0 0 18 18" fill="none" xmlns="http://www.w3.org/2000/svg">
<g id="Outline/alert-input-form">
<g id="Vector">
<path d="M8.2511 7.25817V10.383C8.2511 10.7966 8.58642 11.1318 8.99982 11.1318C9.41336 11.1318 9.74855 10.7964 9.74855 10.383V7.25817C9.74855 6.84463 9.41323 6.50944 8.99982 6.50944C8.58628 6.50944 8.2511 6.84463 8.2511 7.25817Z" fill="#C20006"/>
<path d="M9.00019 13.2046C9.41373 13.2046 9.74892 12.8694 9.74892 12.4559C9.74892 12.0423 9.41373 11.7072 9.00019 11.7072C8.58665 11.7072 8.25146 12.0423 8.25146 12.4559C8.25146 12.8694 8.58665 13.2046 9.00019 13.2046Z" fill="#C20006"/>
<path fill-rule="evenodd" clip-rule="evenodd" d="M16.2993 13.4477L10.297 3.05123C10.0294 2.58795 9.53504 2.3025 9.00006 2.3025C8.46507 2.3025 7.97083 2.58795 7.70314 3.05123L1.70077 13.4477C1.43308 13.9113 1.43308 14.4818 1.70077 14.9454C1.96832 15.4089 2.4627 15.6941 2.99768 15.6941H15.0024C15.5373 15.6941 16.0318 15.4088 16.2993 14.9454C16.5669 14.4818 16.567 13.9111 16.2993 13.4477ZM9.00029 3.79975L2.99811 14.1963H15.0027L9.00029 3.79975Z" fill="#C20006"/>
</g>
</g>
</svg>
