<svg width="20" height="20" viewBox="0 0 20 20" fill="none" xmlns="http://www.w3.org/2000/svg">
<g id="Outline/check-circled">
<g id="Vector">
<path d="M9.99984 1.66667C5.40478 1.66667 1.6665 5.40501 1.6665 10C1.6665 14.595 5.40478 18.3333 9.99984 18.3333C14.5949 18.3333 18.3332 14.595 18.3332 10C18.3332 5.40501 14.5949 1.66667 9.99984 1.66667ZM9.99984 16.7204C6.29421 16.7204 3.27939 13.7057 3.27939 10C3.27939 6.29434 6.29421 3.27956 9.99984 3.27956C13.7055 3.27956 16.7203 6.29437 16.7203 10C16.7203 13.7056 13.7055 16.7204 9.99984 16.7204Z" fill="#00A364"/>
<path d="M12.9242 7.0104L8.92454 11.01L6.80657 8.89213L5.66614 10.0326L8.92454 13.291L14.0646 8.15083L12.9242 7.0104Z" fill="#00A364"/>
</g>
</g>
</svg>
