<svg width="192" height="171" viewBox="0 0 192 171" fill="none" xmlns="http://www.w3.org/2000/svg">
<g id="Group 3" opacity="0.2">
<g id="Group">
<g id="Group_2">
<path id="Vector" d="M94.2639 162.297C93.5664 161.599 92.5989 161.198 91.6127 161.198C90.6264 161.198 89.6589 161.599 88.9614 162.297C88.2639 162.994 87.8627 163.961 87.8627 164.948C87.8627 165.938 88.2639 166.901 88.9614 167.599C89.6589 168.3 90.6264 168.698 91.6127 168.698C92.5989 168.698 93.5664 168.3 94.2639 167.599C94.9614 166.901 95.3627 165.934 95.3627 164.948C95.3627 163.961 94.9611 162.994 94.2639 162.297Z" fill="#D94E3B"/>
</g>
</g>
<g id="Group_3">
<g id="Group_4">
<path id="Vector_2" d="M161.045 140.541H139.813C137.742 140.541 136.063 142.22 136.063 144.291C136.063 146.362 137.742 148.041 139.813 148.041H161.045C163.116 148.041 164.795 146.362 164.795 144.291C164.795 142.22 163.116 140.541 161.045 140.541Z" fill="#D94E3B"/>
</g>
</g>
<g id="Group_5">
<g id="Group_6">
<path id="Vector_3" d="M143.633 113.062C142.168 111.598 139.794 111.598 138.329 113.062L131.005 120.386C129.541 121.85 129.541 124.225 131.005 125.689C131.738 126.421 132.698 126.788 133.657 126.788C134.617 126.788 135.577 126.421 136.309 125.689L143.633 118.366C145.097 116.901 145.097 114.527 143.633 113.062Z" fill="#D94E3B"/>
</g>
</g>
<g id="Group_7">
<g id="Group_8">
<path id="Vector_4" d="M143.908 169.867L136.339 162.298C134.875 160.834 132.501 160.834 131.036 162.298C129.571 163.762 129.571 166.136 131.036 167.601L138.605 175.17C139.337 175.902 140.297 176.269 141.256 176.269C142.216 176.269 143.176 175.902 143.908 175.17C145.372 173.706 145.372 171.331 143.908 169.867Z" fill="#D94E3B"/>
</g>
</g>
<g id="Group 2">
<g id="Group_9">
<g id="Group_10">
<path id="Vector_5" d="M112.119 127.703V100.109C112.119 98.8634 111.5 97.6987 110.468 97.0015C109.435 96.3044 108.124 96.1657 106.968 96.6307L42.35 122.655H21.5375C9.66191 122.655 0 132.317 0 144.193C0 156.069 9.66191 165.731 21.5382 165.731H24.0166V188.251C24.0166 190.321 25.6955 192.001 27.7666 192.001H43.0757C45.1468 192.001 46.8257 190.321 46.8257 188.251V167.54L106.97 191.73C107.421 191.911 107.896 192.001 108.368 192.001C109.106 192.001 109.839 191.783 110.468 191.358C111.5 190.661 112.119 189.496 112.119 188.251V160.658C119.639 158.947 125.271 152.211 125.271 144.18C125.271 136.15 119.639 129.414 112.119 127.703ZM39.3253 184.501H31.5166V165.731H39.3256V184.501H39.3253ZM39.326 158.231H21.5382C13.7974 158.231 7.50003 151.933 7.50003 144.193C7.50003 136.452 13.7974 130.155 21.5382 130.155H39.3275L39.326 158.231ZM104.619 182.7H104.619L46.8275 159.457V128.937L87.8628 112.41V149.625C87.8628 151.696 89.5417 153.375 91.6128 153.375C93.684 153.375 95.3628 151.696 95.3628 149.625V109.39L104.619 105.662V182.7ZM112.119 152.799V135.561C115.442 137.012 117.771 140.328 117.771 144.18C117.771 148.032 115.442 151.348 112.119 152.799Z" fill="#D94E3B"/>
</g>
</g>
<g id="Group_11">
<g id="Group_12">
<path id="Vector_6" d="M177.001 -6.10352e-05H107.25C98.9794 -6.10352e-05 92.2504 6.72896 92.2504 15V16.5H29.2502C24.2874 16.5 20.2501 20.5376 20.2501 25.5V84.7502C20.2501 89.7126 24.2874 93.7503 29.2502 93.7503H33.125V105.25C33.125 106.767 34.0389 108.135 35.4399 108.715C35.9038 108.907 36.3909 109 36.8743 109C37.8501 109 38.8093 108.619 39.5267 107.902L53.6785 93.7503H128.168C133.131 93.7503 137.168 89.7126 137.168 84.7502V73.5002H177.001C185.272 73.5002 192.001 66.7712 192.001 58.5001V15C192 6.72896 185.272 -6.10352e-05 177.001 -6.10352e-05ZM129.668 84.7502C129.668 85.5775 128.995 86.2502 128.168 86.2502H52.1252C51.1307 86.2502 50.1767 86.6455 49.4736 87.3486L40.6254 96.1972V90.0003C40.6254 87.9295 38.9466 86.2502 36.8754 86.2502H29.2502C28.4229 86.2502 27.7501 85.5775 27.7501 84.7502V25.5C27.7501 24.6728 28.4229 24 29.2502 24H92.2504V58.5001C92.2504 66.7712 98.9794 73.5002 107.25 73.5002H129.668V84.7502ZM184.501 58.5001C184.501 62.6357 181.136 66.0002 177.001 66.0002H107.25C103.115 66.0002 99.7504 62.6357 99.7504 58.5001V15C99.7504 10.8645 103.115 7.49997 107.25 7.49997H177.001C181.136 7.49997 184.501 10.8645 184.501 15V58.5001Z" fill="#D94E3B"/>
</g>
</g>
</g>
<g id="Group_13">
<g id="Group_14">
<path id="Vector_7" d="M157.191 33.5026L131.526 18.6848C130.366 18.0146 128.936 18.0146 127.776 18.6848C126.616 19.3545 125.901 20.5928 125.901 21.9323V51.5675C125.901 52.907 126.616 54.1453 127.776 54.815C128.356 55.1503 129.003 55.3175 129.651 55.3175C130.299 55.3175 130.946 55.1503 131.526 54.815L157.191 39.9972C158.351 39.3275 159.066 38.0892 159.066 36.7497C159.066 35.4102 158.352 34.1723 157.191 33.5026ZM133.401 45.0725V28.4277L147.816 36.7501L133.401 45.0725Z" fill="#D94E3B"/>
</g>
</g>
<g id="Group_15">
<g id="Group_16">
<path id="Vector_8" d="M80.4418 39.3751H42.9417C40.8705 39.3751 39.1917 41.0543 39.1917 43.1251C39.1917 45.1958 40.8705 46.8751 42.9417 46.8751H80.4418C82.5129 46.8751 84.1918 45.1958 84.1918 43.1251C84.1918 41.0543 82.5129 39.3751 80.4418 39.3751Z" fill="#D94E3B"/>
</g>
</g>
<g id="Group_17">
<g id="Group_18">
<path id="Vector_9" d="M83.0928 61.4739C82.3953 60.776 81.4278 60.3752 80.4415 60.3752C79.4553 60.3752 78.4878 60.776 77.7903 61.4739C77.0928 62.1714 76.6915 63.1389 76.6915 64.1252C76.6915 65.1114 77.0928 66.0789 77.7903 66.7761C78.4878 67.4736 79.4553 67.8752 80.4415 67.8752C81.4315 67.8752 82.3953 67.4739 83.0928 66.7761C83.7903 66.0789 84.1916 65.1114 84.1916 64.1252C84.1916 63.1389 83.7903 62.1714 83.0928 61.4739Z" fill="#D94E3B"/>
</g>
</g>
<g id="Group_19">
<g id="Group_20">
<path id="Vector_10" d="M66.3751 60.3752H42.9417C40.8705 60.3752 39.1917 62.0544 39.1917 64.1252C39.1917 66.1959 40.8705 67.8752 42.9417 67.8752H66.3751C68.4463 67.8752 70.1251 66.1959 70.1251 64.1252C70.1251 62.0544 68.4463 60.3752 66.3751 60.3752Z" fill="#D94E3B"/>
</g>
</g>
</g>
</svg>
