<svg width="32" height="32" viewBox="0 0 32 32" fill="none" xmlns="http://www.w3.org/2000/svg">
<g id="Oultine/lock">
<g id="Vector">
<path fill-rule="evenodd" clip-rule="evenodd" d="M16.1848 4.02911C15.447 4.02911 14.7167 4.17695 14.037 4.46389C13.3572 4.75084 12.7419 5.17106 12.2273 5.69977C11.7127 6.22847 11.3092 6.85493 11.0407 7.54215C10.7722 8.22938 10.6442 8.96343 10.6641 9.70097L10.6643 9.71016V14.2025H9.30188V9.72831C9.2784 8.812 9.43811 7.90019 9.77169 7.04636C10.1064 6.1896 10.6094 5.4086 11.251 4.74947C11.8926 4.09034 12.6597 3.56644 13.5071 3.20871C14.3545 2.85098 15.265 2.66667 16.1848 2.66667C17.1046 2.66667 18.0151 2.85098 18.8625 3.20871C19.7099 3.56644 20.4771 4.09034 21.1187 4.74947C21.7602 5.4086 22.2632 6.1896 22.5979 7.04636C22.9315 7.90019 23.0912 8.812 23.0677 9.72832V14.189H21.7053V9.71016L21.7056 9.70097C21.7255 8.96343 21.5974 8.22938 21.3289 7.54215C21.0604 6.85493 20.657 6.22847 20.1423 5.69977C19.6277 5.17106 19.0124 4.75084 18.3327 4.46389C17.6529 4.17695 16.9226 4.02911 16.1848 4.02911Z" fill="#FB6E6D"/>
<path fill-rule="evenodd" clip-rule="evenodd" d="M23.6157 14.4318H8.74224C7.61203 14.4318 6.69582 15.348 6.69582 16.4782V25.9245C6.69582 27.0547 7.61203 27.9709 8.74224 27.9709H23.6157C24.7459 27.9709 25.6621 27.0547 25.6621 25.9245V16.4782C25.6621 15.348 24.7459 14.4318 23.6157 14.4318ZM8.74224 13.0693H23.6157C25.4984 13.0693 27.0246 14.5955 27.0246 16.4782V25.9245C27.0246 27.8071 25.4984 29.3333 23.6157 29.3333H8.74224C6.85958 29.3333 5.33337 27.8071 5.33337 25.9245V16.4782C5.33337 14.5955 6.85958 13.0693 8.74224 13.0693Z" fill="#FB6E6D"/>
<path fill-rule="evenodd" clip-rule="evenodd" d="M16.6324 19.9867C16.6317 19.9031 16.6077 19.8213 16.5631 19.7505C16.5185 19.6796 16.4551 19.6227 16.38 19.5859C16.3048 19.5491 16.2209 19.534 16.1376 19.5422C16.0544 19.5504 15.9751 19.5817 15.9086 19.6325C15.842 19.6833 15.7909 19.7517 15.7611 19.8297C15.7312 19.9078 15.7237 19.9927 15.7393 20.0749C15.755 20.1571 15.7932 20.2333 15.8498 20.295C15.9063 20.3567 15.9789 20.4014 16.0594 20.4242L16.185 20.4596L16.3091 20.4244C16.4031 20.3978 16.4857 20.3409 16.5441 20.2627C16.6026 20.1844 16.6336 20.0891 16.6325 19.9913L16.6324 19.9867ZM17.0515 21.584C16.9345 21.6476 16.8102 21.6985 16.6805 21.7353V23.9472C16.6805 24.0795 16.628 24.2064 16.5345 24.2999C16.441 24.3934 16.3141 24.4459 16.1818 24.4459C16.0506 24.4444 15.9252 24.3912 15.833 24.2978C15.7407 24.2044 15.689 24.0785 15.689 23.9472V21.7353C15.5596 21.6987 15.4353 21.648 15.3181 21.5845C15.1419 21.4891 14.982 21.3646 14.8454 21.2156C14.6179 20.9674 14.464 20.6607 14.401 20.33C14.3379 19.9993 14.3682 19.6575 14.4885 19.343C14.6088 19.0286 14.8143 18.7538 15.0819 18.5495C15.3495 18.3452 15.6687 18.2195 16.0037 18.1864C16.3388 18.1533 16.6764 18.2142 16.9789 18.3622C17.2813 18.5102 17.5365 18.7394 17.7159 19.0243C17.8954 19.3092 17.9919 19.6384 17.9948 19.9751C17.9995 20.3721 17.8734 20.7597 17.6358 21.0778C17.4789 21.288 17.2791 21.4601 17.0515 21.584Z" fill="#FB6E6D"/>
</g>
</g>
</svg>
