<svg width="18" height="18" viewBox="0 0 18 18" fill="none" xmlns="http://www.w3.org/2000/svg">
<g id="Solid/lock">
<path id="Vector" d="M12.6982 16.5H5.30225C4.79111 16.5 4.30096 16.2986 3.93953 15.9401C3.5781 15.5817 3.375 15.0955 3.375 14.5886V8.668C3.37578 8.33388 3.46528 8.00585 3.63443 7.7169C3.80359 7.42795 4.04644 7.18822 4.33863 7.0219V6.27798C4.33863 3.63904 6.29941 1.5 8.71823 1.5H9.28177C11.7006 1.5 13.6614 3.63904 13.6614 6.27798V7.0219C13.9536 7.18818 14.1965 7.42782 14.3657 7.71678C14.5348 8.00574 14.6243 8.33387 14.625 8.668V14.5886C14.6251 14.8396 14.5753 15.088 14.4785 15.3199C14.3817 15.5518 14.2398 15.7626 14.0608 15.9401C13.8819 16.1176 13.6694 16.2584 13.4356 16.3545C13.2018 16.4505 12.9513 16.5 12.6982 16.5ZM8.48419 12.8796V14.6521H9.4588V12.8796C9.74265 12.7828 9.98958 12.6018 10.1662 12.3611C10.3428 12.1204 10.4404 11.8316 10.4459 11.534C10.4459 11.1538 10.2937 10.7893 10.0226 10.5204C9.75152 10.2516 9.38384 10.1005 9.00049 10.1005C8.61713 10.1005 8.24945 10.2516 7.97838 10.5204C7.70731 10.7893 7.55511 11.1538 7.55511 11.534C7.54846 11.8265 7.63441 12.1139 7.80099 12.3554C7.96757 12.5969 8.20637 12.7806 8.4837 12.8805L8.48419 12.8796ZM12.3452 6.46444C12.3452 4.5119 10.9205 2.92839 9.16274 2.92839H8.83872C7.081 2.92839 5.6563 4.5119 5.6563 6.46444V7.26394H12.3452V6.46444Z" fill="#797979"/>
</g>
</svg>
