<svg width="18" height="18" viewBox="0 0 18 18" fill="none" xmlns="http://www.w3.org/2000/svg">
<g id="Solid/user">
<g id="Vector">
<path d="M1.9861 16.1098C2.24221 16.3574 2.59146 16.5 2.95624 16.5H15.0403C15.4051 16.5 15.7543 16.3574 16.0104 16.1098C16.2665 15.8622 16.414 15.5245 16.414 15.1718V15.0818L15.8552 14.3689C15.7465 14.0238 15.0558 11.9752 14.0624 10.9097C13.7209 10.542 13.3251 10.3469 12.8827 10.3319C12.0755 10.3169 11.4314 10.8947 11.4314 10.8947L11.377 10.9697C11.377 10.9772 10.9036 11.8702 9.30483 11.9002H8.69946C7.12395 11.8702 6.61948 10.9697 6.61948 10.9697L6.56515 10.8947C6.54187 10.8722 5.90546 10.3019 5.11383 10.3319C4.67144 10.3469 4.27563 10.542 3.93414 10.9097C2.94071 11.9752 2.24998 14.0238 2.14132 14.3689L1.58252 15.0818V15.1718C1.58252 15.5245 1.72998 15.8622 1.9861 16.1098Z" fill="#797979"/>
<path d="M4.75681 6.14482C4.75681 8.7036 6.62724 10.7896 8.91677 10.7896C11.2141 10.7896 13.0767 8.7036 13.0767 6.14482C13.0767 3.58604 11.2141 1.5 8.91677 1.5C6.61948 1.5 4.75681 3.58604 4.75681 6.14482Z" fill="#797979"/>
</g>
</g>
</svg>
