<svg xmlns="http://www.w3.org/2000/svg" xmlns:xlink="http://www.w3.org/1999/xlink" viewBox="0,0,256,256" width="48px" height="48px"><g fill="none" fill-rule="nonzero" stroke="none" stroke-width="1" stroke-linecap="butt" stroke-linejoin="none" stroke-miterlimit="10" stroke-dasharray="" stroke-dashoffset="0" font-family="none" font-weight="none" font-size="none" text-anchor="none" style="mix-blend-mode: normal"><path transform="scale(5.33333,5.33333)" d="M35,11v6c-0.00006,0.55226 -0.44774,0.99994 -1,1h-16c-0.36064,0.0051 -0.69608,-0.18438 -0.87789,-0.49587c-0.18181,-0.3115 -0.18181,-0.69676 0,-1.00825c0.18181,-0.3115 0.51725,-0.50097 0.87789,-0.49587h15v-5c0,-4.98259 -4.01741,-9 -9,-9c-4.98259,0 -9,4.01741 -9,9v6c-0.00006,0.55226 -0.44774,0.99994 -1,1h-2c-1.66848,0 -3,1.33152 -3,3v19c0,1.66848 1.33152,3 3,3h24c1.66848,0 3,-1.33152 3,-3v-19c0,-1.10878 -0.59512,-2.06519 -1.47852,-2.58594c-0.31589,-0.17741 -0.51113,-0.5118 -0.51037,-0.87411c0.00077,-0.3623 0.19742,-0.69586 0.51407,-0.87194c0.31664,-0.17607 0.70375,-0.16713 1.01192,0.02339c1.4746,0.86925 2.46289,2.48138 2.46289,4.30859v19c0,2.74952 -2.25048,5 -5,5h-24c-2.74952,0 -5,-2.25048 -5,-5v-19c0,-2.74952 2.25048,-5 5,-5h1v-5c0,-6.06341 4.93659,-11 11,-11c6.06341,0 11,4.93659 11,11zM17.93703,28.60157c0.15857,0.38066 0.06724,0.81963 -0.23,1.10546l-1.29297,1.29297l1.29297,1.29297c0.26124,0.25082 0.36648,0.62327 0.27512,0.97371c-0.09136,0.35044 -0.36503,0.62411 -0.71547,0.71547c-0.35044,0.09136 -0.72289,-0.01388 -0.97371,-0.27512l-1.29297,-1.29297l-1.29297,1.29297c-0.25082,0.26124 -0.62327,0.36648 -0.97371,0.27512c-0.35044,-0.09136 -0.62411,-0.36503 -0.71547,-0.71547c-0.09136,-0.35044 0.01388,-0.72289 0.27512,-0.97371l1.29297,-1.29297l-1.29297,-1.29297c-0.29161,-0.28381 -0.38219,-0.71601 -0.22907,-1.09303c0.15312,-0.37701 0.51941,-0.62366 0.92633,-0.62377c0.27,0.00002 0.52853,0.1092 0.7168,0.30273l1.29297,1.29297l1.29297,-1.29297c0.18287,-0.19019 0.43349,-0.3004 0.69727,-0.30664c0.41226,-0.00973 0.78822,0.23458 0.94679,0.61524zM26.93703,28.60157c0.15857,0.38066 0.06724,0.81963 -0.23,1.10546l-1.29297,1.29297l1.29297,1.29297c0.26124,0.25082 0.36648,0.62327 0.27512,0.97371c-0.09136,0.35044 -0.36503,0.62411 -0.71547,0.71547c-0.35044,0.09136 -0.72289,-0.01388 -0.97371,-0.27512l-1.29297,-1.29297l-1.29297,1.29297c-0.25082,0.26124 -0.62327,0.36648 -0.97371,0.27512c-0.35044,-0.09136 -0.62411,-0.36503 -0.71547,-0.71547c-0.09136,-0.35044 0.01388,-0.72289 0.27512,-0.97371l1.29297,-1.29297l-1.29297,-1.29297c-0.29161,-0.28381 -0.38219,-0.71601 -0.22907,-1.09303c0.15312,-0.37701 0.51941,-0.62366 0.92633,-0.62377c0.27,0.00002 0.52853,0.1092 0.7168,0.30273l1.29297,1.29297l1.29297,-1.29297c0.18287,-0.19019 0.43349,-0.3004 0.69727,-0.30664c0.41226,-0.00973 0.78822,0.23458 0.94679,0.61524zM35.93703,28.60157c0.15857,0.38066 0.06724,0.81963 -0.23,1.10546l-1.29297,1.29297l1.29297,1.29297c0.26124,0.25082 0.36648,0.62327 0.27512,0.97371c-0.09136,0.35044 -0.36503,0.62411 -0.71547,0.71547c-0.35044,0.09136 -0.72289,-0.01388 -0.97371,-0.27512l-1.29297,-1.29297l-1.29297,1.29297c-0.25082,0.26124 -0.62327,0.36648 -0.97371,0.27512c-0.35044,-0.09136 -0.62411,-0.36503 -0.71547,-0.71547c-0.09136,-0.35044 0.01388,-0.72289 0.27512,-0.97371l1.29297,-1.29297l-1.29297,-1.29297c-0.29161,-0.28381 -0.38219,-0.71601 -0.22907,-1.09303c0.15312,-0.37701 0.51941,-0.62366 0.92633,-0.62377c0.27,0.00002 0.52853,0.1092 0.7168,0.30273l1.29297,1.29297l1.29297,-1.29297c0.18287,-0.19019 0.43349,-0.3004 0.69727,-0.30664c0.41226,-0.00973 0.78822,0.23458 0.94679,0.61524z" id="strokeMainSVG" fill="#dddddd" stroke="#dddddd" stroke-linejoin="round"></path><g transform="scale(5.33333,5.33333)" fill="#ffffff" stroke="none" stroke-linejoin="miter"><path d="M24,0c-6.06341,0 -11,4.93659 -11,11v5h-1c-2.74952,0 -5,2.25048 -5,5v19c0,2.74952 2.25048,5 5,5h24c2.74952,0 5,-2.25048 5,-5v-19c0,-1.82722 -0.98829,-3.43934 -2.46289,-4.30859c-0.30817,-0.19052 -0.69528,-0.19946 -1.01192,-0.02339c-0.31664,0.17607 -0.5133,0.50963 -0.51407,0.87194c-0.00077,0.3623 0.19447,0.69669 0.51037,0.87411c0.8834,0.52075 1.47852,1.47716 1.47852,2.58594v19c0,1.66848 -1.33152,3 -3,3h-24c-1.66848,0 -3,-1.33152 -3,-3v-19c0,-1.66848 1.33152,-3 3,-3h2c0.55226,-0.00006 0.99994,-0.44774 1,-1v-6c0,-4.98259 4.01741,-9 9,-9c4.98259,0 9,4.01741 9,9v5h-15c-0.36064,-0.0051 -0.69608,0.18438 -0.87789,0.49587c-0.18181,0.3115 -0.18181,0.69676 0,1.00825c0.18181,0.3115 0.51725,0.50097 0.87789,0.49587h16c0.55226,-0.00006 0.99994,-0.44774 1,-1v-6c0,-6.06341 -4.93659,-11 -11,-11zM16.99023,27.98633c-0.26377,0.00624 -0.51439,0.11645 -0.69727,0.30664l-1.29297,1.29297l-1.29297,-1.29297c-0.18827,-0.19353 -0.4468,-0.30272 -0.7168,-0.30273c-0.40692,0.00011 -0.77321,0.24676 -0.92633,0.62377c-0.15312,0.37701 -0.06255,0.80921 0.22907,1.09303l1.29297,1.29297l-1.29297,1.29297c-0.26124,0.25082 -0.36648,0.62327 -0.27512,0.97371c0.09136,0.35044 0.36503,0.62411 0.71547,0.71547c0.35044,0.09136 0.72289,-0.01388 0.97371,-0.27512l1.29297,-1.29297l1.29297,1.29297c0.25082,0.26124 0.62327,0.36648 0.97371,0.27512c0.35044,-0.09136 0.62411,-0.36503 0.71547,-0.71547c0.09136,-0.35044 -0.01388,-0.72289 -0.27512,-0.97371l-1.29297,-1.29297l1.29297,-1.29297c0.29724,-0.28583 0.38857,-0.7248 0.23,-1.10546c-0.15857,-0.38066 -0.53454,-0.62497 -0.94679,-0.61524zM25.99023,27.98633c-0.26377,0.00624 -0.51439,0.11645 -0.69727,0.30664l-1.29297,1.29297l-1.29297,-1.29297c-0.18827,-0.19353 -0.4468,-0.30272 -0.7168,-0.30273c-0.40692,0.00011 -0.77321,0.24676 -0.92633,0.62377c-0.15312,0.37701 -0.06255,0.80921 0.22907,1.09303l1.29297,1.29297l-1.29297,1.29297c-0.26124,0.25082 -0.36648,0.62327 -0.27512,0.97371c0.09136,0.35044 0.36503,0.62411 0.71547,0.71547c0.35044,0.09136 0.72289,-0.01388 0.97371,-0.27512l1.29297,-1.29297l1.29297,1.29297c0.25082,0.26124 0.62327,0.36648 0.97371,0.27512c0.35044,-0.09136 0.62411,-0.36503 0.71547,-0.71547c0.09136,-0.35044 -0.01388,-0.72289 -0.27512,-0.97371l-1.29297,-1.29297l1.29297,-1.29297c0.29724,-0.28583 0.38857,-0.7248 0.23,-1.10546c-0.15857,-0.38066 -0.53454,-0.62497 -0.94679,-0.61524zM34.99023,27.98633c-0.26377,0.00624 -0.51439,0.11645 -0.69727,0.30664l-1.29297,1.29297l-1.29297,-1.29297c-0.18827,-0.19353 -0.4468,-0.30272 -0.7168,-0.30273c-0.40692,0.00011 -0.77321,0.24676 -0.92633,0.62377c-0.15312,0.37701 -0.06255,0.80921 0.22907,1.09303l1.29297,1.29297l-1.29297,1.29297c-0.26124,0.25082 -0.36648,0.62327 -0.27512,0.97371c0.09136,0.35044 0.36503,0.62411 0.71547,0.71547c0.35044,0.09136 0.72289,-0.01388 0.97371,-0.27512l1.29297,-1.29297l1.29297,1.29297c0.25082,0.26124 0.62327,0.36648 0.97371,0.27512c0.35044,-0.09136 0.62411,-0.36503 0.71547,-0.71547c0.09136,-0.35044 -0.01388,-0.72289 -0.27512,-0.97371l-1.29297,-1.29297l1.29297,-1.29297c0.29724,-0.28583 0.38857,-0.7248 0.23,-1.10546c-0.15857,-0.38066 -0.53454,-0.62497 -0.94679,-0.61524z"></path></g></g></svg>