<svg width="10" height="11" viewBox="0 0 10 11" fill="none" xmlns="http://www.w3.org/2000/svg">
<g id="Outline/chevron-left">
<path id="Vector" d="M4.19517 5.5018L7.31265 2.38419C7.39849 2.29855 7.44571 2.18405 7.44571 2.06196C7.44571 1.93981 7.39849 1.82538 7.31265 1.73961L7.03948 1.46657C6.95378 1.38066 6.83921 1.33337 6.71712 1.33337C6.59504 1.33337 6.48061 1.38066 6.39483 1.46657L2.68298 5.17836C2.59687 5.2644 2.54971 5.37938 2.55005 5.5016C2.54971 5.62436 2.5968 5.7392 2.68298 5.82531L6.39138 9.53351C6.47715 9.61942 6.59158 9.66671 6.71374 9.66671C6.83582 9.66671 6.95025 9.61942 7.03609 9.53351L7.3092 9.26048C7.48691 9.08277 7.48691 8.79347 7.3092 8.61583L4.19517 5.5018Z" fill="#3D3D3D"/>
</g>
</svg>
