<svg width="10" height="11" viewBox="0 0 10 11" fill="none" xmlns="http://www.w3.org/2000/svg">
<g id="Outline/chevron-right">
<path id="Vector" d="M7.31288 5.17487L3.60444 1.4665C3.51867 1.38066 3.40417 1.33337 3.28209 1.33337C3.16 1.33337 3.04551 1.38066 2.95973 1.4665L2.68663 1.73954C2.50892 1.91745 2.50892 2.20661 2.68663 2.38425L5.8007 5.49831L2.68318 8.61584C2.59741 8.70167 2.55005 8.81611 2.55005 8.93812C2.55005 9.06028 2.59741 9.17471 2.68318 9.26061L2.95628 9.53358C3.04212 9.61942 3.15655 9.66671 3.27863 9.66671C3.40072 9.66671 3.51522 9.61942 3.60099 9.53358L7.31288 5.82182C7.39886 5.73571 7.44608 5.62074 7.44581 5.49852C7.44608 5.37582 7.39886 5.26092 7.31288 5.17487Z" fill="#3D3D3D"/>
</g>
</svg>
