<svg width="16" height="16" viewBox="0 0 16 16" fill="none" xmlns="http://www.w3.org/2000/svg">
<g id="Solid/close">
<path id="Vector" d="M8.00016 1.33334C6.68162 1.33334 5.39269 1.72434 4.29636 2.45688C3.20004 3.18942 2.34555 4.23061 1.84097 5.44879C1.33638 6.66696 1.20436 8.0074 1.4616 9.30061C1.71883 10.5938 2.35377 11.7817 3.28612 12.7141C4.21847 13.6464 5.40636 14.2813 6.69956 14.5386C7.99277 14.7958 9.33321 14.6638 10.5514 14.1592C11.7696 13.6546 12.8108 12.8001 13.5433 11.7038C14.2758 10.6075 14.6668 9.31855 14.6668 8.00001C14.6647 6.23254 13.9617 4.53806 12.7119 3.28827C11.4621 2.03848 9.76763 1.33543 8.00016 1.33334ZM10.5711 9.71455C10.629 9.77046 10.6751 9.83734 10.7069 9.91128C10.7387 9.98522 10.7554 10.0647 10.7561 10.1452C10.7568 10.2257 10.7414 10.3055 10.711 10.38C10.6805 10.4545 10.6355 10.5221 10.5786 10.579C10.5217 10.6359 10.454 10.6809 10.3795 10.7114C10.305 10.7419 10.2252 10.7572 10.1448 10.7565C10.0643 10.7558 9.98477 10.7391 9.91083 10.7073C9.83689 10.6756 9.77001 10.6294 9.7141 10.5715L8.00016 8.85698L6.28623 10.5715C6.17192 10.6819 6.01883 10.743 5.85992 10.7416C5.70101 10.7402 5.54901 10.6765 5.43664 10.5641C5.32427 10.4518 5.26053 10.2998 5.25915 10.1409C5.25777 9.98195 5.31886 9.82886 5.42926 9.71455L7.1432 8.00001L5.42926 6.28546C5.37137 6.22956 5.3252 6.16268 5.29344 6.08874C5.26167 6.0148 5.24496 5.93527 5.24426 5.8548C5.24356 5.77433 5.25889 5.69452 5.28936 5.62004C5.31984 5.54555 5.36484 5.47789 5.42174 5.42098C5.47865 5.36408 5.54632 5.31908 5.6208 5.2886C5.69528 5.25813 5.77509 5.24279 5.85556 5.24349C5.93603 5.24419 6.01556 5.26091 6.0895 5.29268C6.16344 5.32444 6.23032 5.37061 6.28623 5.42849L8.00016 7.14304L9.7141 5.42849C9.77001 5.37061 9.83689 5.32444 9.91083 5.29268C9.98477 5.26091 10.0643 5.24419 10.1448 5.24349C10.2252 5.24279 10.305 5.25813 10.3795 5.2886C10.454 5.31908 10.5217 5.36408 10.5786 5.42098C10.6355 5.47789 10.6805 5.54555 10.711 5.62004C10.7414 5.69452 10.7568 5.77433 10.7561 5.8548C10.7554 5.93527 10.7387 6.0148 10.7069 6.08874C10.6751 6.16268 10.629 6.22956 10.5711 6.28546L8.85713 8.00001L10.5711 9.71455Z" fill="white"/>
</g>
</svg>
