<svg width="24" height="24" viewBox="0 0 24 24" fill="none" xmlns="http://www.w3.org/2000/svg">
<g id="Outline/confirmation-toast">
<g id="Vector">
<path d="M6.44283 20.3136C8.08661 21.4124 10.0192 21.9992 11.9964 22C14.5346 21.9995 16.9777 21.0341 18.8306 19.2995C20.6836 17.5648 21.8078 15.1906 21.9754 12.6579C21.4302 13.0139 20.8062 13.2309 20.1579 13.2901C19.9111 14.8493 19.2228 16.3052 18.1744 17.4854C17.1259 18.6656 15.7613 19.5207 14.242 19.9494C12.7228 20.3781 11.1124 20.3626 9.60173 19.9046C8.09101 19.4466 6.74314 18.5654 5.71769 17.3652C4.69224 16.165 4.03214 14.6961 3.81554 13.1324C3.59894 11.5687 3.8349 9.97569 4.4955 8.54194C5.1561 7.10819 6.21367 5.89374 7.54302 5.04235C8.87237 4.19095 10.4178 3.73828 11.9964 3.7379C13.2189 3.7336 14.4268 4.00364 15.5311 4.52813C15.7401 3.98423 16.0227 3.4716 16.3711 3.00457C14.4999 2.09614 12.392 1.79353 10.3408 2.13882C8.2896 2.48411 6.397 3.46015 4.92631 4.93114C3.52874 6.32978 2.57715 8.11132 2.19178 10.0506C1.80642 11.9899 2.00458 13.9999 2.76123 15.8266C3.51788 17.6533 4.79904 19.2148 6.44283 20.3136Z" fill="white"/>
<path d="M8.87441 9.88685C8.32045 10.091 8.08483 10.1779 8.08483 11.1541C10.4049 17.2736 12.6475 17.9034 13.4702 15.4126C15.6009 9.97123 19.1887 7.1339 20.9524 5.73914C21.6619 5.17804 22.0762 4.85041 21.9817 4.68061C21.6521 4.08873 14.8153 7.04577 11.7334 12.006C11.6151 11.7876 11.5124 11.5953 11.4189 11.4201C11.1535 10.9229 10.9614 10.5631 10.6909 10.1324C10.325 9.55001 9.86271 9.49785 9.12702 9.79102C9.03637 9.82714 8.95225 9.85815 8.87441 9.88685Z" fill="white"/>
</g>
</g>
</svg>
